<?xml version="1.0" encoding="UTF-8" standalone="no"?>
<!DOCTYPE svg PUBLIC "-//W3C//DTD SVG 1.1//EN"
 "http://www.w3.org/Graphics/SVG/1.1/DTD/svg11.dtd">
<!-- Generated by graphviz version 3.0.0 (20220226.1711)
 -->
<!-- Pages: 1 -->
<svg width="3016pt" height="332pt"
 viewBox="0.00 0.00 3015.98 332.00" xmlns="http://www.w3.org/2000/svg" xmlns:xlink="http://www.w3.org/1999/xlink">
<g id="graph0" class="graph" transform="scale(1 1) rotate(0) translate(4 328)">
<polygon fill="white" stroke="transparent" points="-4,4 -4,-328 3011.98,-328 3011.98,4 -4,4"/>
<!-- [root] data.iosxe_interface_ethernet.data_ether_intf (expand) -->
<g id="node1" class="node">
<title>[root] data.iosxe_interface_ethernet.data_ether_intf (expand)</title>
<polygon fill="none" stroke="black" points="1228.5,-180 967.5,-180 967.5,-144 1228.5,-144 1228.5,-180"/>
<text text-anchor="middle" x="1098" y="-158.3" font-family="Times,serif" font-size="14.00">data.iosxe_interface_ethernet.data_ether_intf</text>
</g>
<!-- [root] provider[&quot;registry.terraform.io/netascode/iosxe&quot;].cisco_sandbox -->
<g id="node13" class="node">
<title>[root] provider[&quot;registry.terraform.io/netascode/iosxe&quot;].cisco_sandbox</title>
<polygon fill="none" stroke="black" points="846,-108 509.68,-90 846,-72 1182.32,-90 846,-108"/>
<text text-anchor="middle" x="846" y="-86.3" font-family="Times,serif" font-size="14.00">provider[&quot;registry.terraform.io/netascode/iosxe&quot;].cisco_sandbox</text>
</g>
<!-- [root] data.iosxe_interface_ethernet.data_ether_intf (expand)&#45;&gt;[root] provider[&quot;registry.terraform.io/netascode/iosxe&quot;].cisco_sandbox -->
<g id="edge1" class="edge">
<title>[root] data.iosxe_interface_ethernet.data_ether_intf (expand)&#45;&gt;[root] provider[&quot;registry.terraform.io/netascode/iosxe&quot;].cisco_sandbox</title>
<path fill="none" stroke="black" d="M1036.68,-143.97C997.32,-133.03 946.42,-118.9 907.11,-107.98"/>
<polygon fill="black" stroke="black" points="907.96,-104.58 897.38,-105.27 906.08,-111.32 907.96,-104.58"/>
</g>
<!-- [root] data.iosxe_static_route.static_route_data (expand) -->
<g id="node2" class="node">
<title>[root] data.iosxe_static_route.static_route_data (expand)</title>
<polygon fill="none" stroke="black" points="724.5,-180 487.5,-180 487.5,-144 724.5,-144 724.5,-180"/>
<text text-anchor="middle" x="606" y="-158.3" font-family="Times,serif" font-size="14.00">data.iosxe_static_route.static_route_data</text>
</g>
<!-- [root] data.iosxe_static_route.static_route_data (expand)&#45;&gt;[root] provider[&quot;registry.terraform.io/netascode/iosxe&quot;].cisco_sandbox -->
<g id="edge2" class="edge">
<title>[root] data.iosxe_static_route.static_route_data (expand)&#45;&gt;[root] provider[&quot;registry.terraform.io/netascode/iosxe&quot;].cisco_sandbox</title>
<path fill="none" stroke="black" d="M664.4,-143.97C701.6,-133.12 749.62,-119.11 786.94,-108.23"/>
<polygon fill="black" stroke="black" points="788.05,-111.55 796.67,-105.39 786.09,-104.83 788.05,-111.55"/>
</g>
<!-- [root] iosxe_interface_ethernet.ether_intf (expand) -->
<g id="node3" class="node">
<title>[root] iosxe_interface_ethernet.ether_intf (expand)</title>
<polygon fill="none" stroke="black" points="949,-180 743,-180 743,-144 949,-144 949,-180"/>
<text text-anchor="middle" x="846" y="-158.3" font-family="Times,serif" font-size="14.00">iosxe_interface_ethernet.ether_intf</text>
</g>
<!-- [root] iosxe_interface_ethernet.ether_intf (expand)&#45;&gt;[root] provider[&quot;registry.terraform.io/netascode/iosxe&quot;].cisco_sandbox -->
<g id="edge3" class="edge">
<title>[root] iosxe_interface_ethernet.ether_intf (expand)&#45;&gt;[root] provider[&quot;registry.terraform.io/netascode/iosxe&quot;].cisco_sandbox</title>
<path fill="none" stroke="black" d="M846,-143.7C846,-135.98 846,-126.71 846,-118.11"/>
<polygon fill="black" stroke="black" points="849.5,-118.1 846,-108.1 842.5,-118.1 849.5,-118.1"/>
</g>
<!-- [root] iosxe_interface_loopback.interface_loopback (expand) -->
<g id="node4" class="node">
<title>[root] iosxe_interface_loopback.interface_loopback (expand)</title>
<polygon fill="none" stroke="black" points="469.5,-180 206.5,-180 206.5,-144 469.5,-144 469.5,-180"/>
<text text-anchor="middle" x="338" y="-158.3" font-family="Times,serif" font-size="14.00">iosxe_interface_loopback.interface_loopback</text>
</g>
<!-- [root] iosxe_interface_loopback.interface_loopback (expand)&#45;&gt;[root] provider[&quot;registry.terraform.io/netascode/iosxe&quot;].cisco_sandbox -->
<g id="edge4" class="edge">
<title>[root] iosxe_interface_loopback.interface_loopback (expand)&#45;&gt;[root] provider[&quot;registry.terraform.io/netascode/iosxe&quot;].cisco_sandbox</title>
<path fill="none" stroke="black" d="M461.62,-143.97C549.21,-131.9 665.18,-115.92 746.75,-104.68"/>
<polygon fill="black" stroke="black" points="747.6,-108.09 757.02,-103.26 746.64,-101.16 747.6,-108.09"/>
</g>
<!-- [root] var.loopback_interfaces -->
<g id="node15" class="node">
<title>[root] var.loopback_interfaces</title>
<polygon fill="none" stroke="black" points="405,-108 265,-108 265,-72 411,-72 411,-102 405,-108"/>
<polyline fill="none" stroke="black" points="405,-108 405,-102 "/>
<polyline fill="none" stroke="black" points="411,-102 405,-102 "/>
<text text-anchor="middle" x="338" y="-86.3" font-family="Times,serif" font-size="14.00">var.loopback_interfaces</text>
</g>
<!-- [root] iosxe_interface_loopback.interface_loopback (expand)&#45;&gt;[root] var.loopback_interfaces -->
<g id="edge5" class="edge">
<title>[root] iosxe_interface_loopback.interface_loopback (expand)&#45;&gt;[root] var.loopback_interfaces</title>
<path fill="none" stroke="black" d="M338,-143.7C338,-135.98 338,-126.71 338,-118.11"/>
<polygon fill="black" stroke="black" points="341.5,-118.1 338,-108.1 334.5,-118.1 341.5,-118.1"/>
</g>
<!-- [root] iosxe_static_route.static_route (expand) -->
<g id="node5" class="node">
<title>[root] iosxe_static_route.static_route (expand)</title>
<polygon fill="none" stroke="black" points="1573,-180 1391,-180 1391,-144 1573,-144 1573,-180"/>
<text text-anchor="middle" x="1482" y="-158.3" font-family="Times,serif" font-size="14.00">iosxe_static_route.static_route</text>
</g>
<!-- [root] iosxe_static_route.static_route (expand)&#45;&gt;[root] provider[&quot;registry.terraform.io/netascode/iosxe&quot;].cisco_sandbox -->
<g id="edge6" class="edge">
<title>[root] iosxe_static_route.static_route (expand)&#45;&gt;[root] provider[&quot;registry.terraform.io/netascode/iosxe&quot;].cisco_sandbox</title>
<path fill="none" stroke="black" d="M1390.75,-145.22C1387.8,-144.79 1384.88,-144.39 1382,-144 1247.3,-125.91 1092.79,-111.28 984.37,-102.01"/>
<polygon fill="black" stroke="black" points="984.62,-98.52 974.36,-101.16 984.02,-105.49 984.62,-98.52"/>
</g>
<!-- [root] iosxe_system.hostname_config (expand) -->
<g id="node6" class="node">
<title>[root] iosxe_system.hostname_config (expand)</title>
<polygon fill="none" stroke="black" points="188,-180 0,-180 0,-144 188,-144 188,-180"/>
<text text-anchor="middle" x="94" y="-158.3" font-family="Times,serif" font-size="14.00">iosxe_system.hostname_config</text>
</g>
<!-- [root] iosxe_system.hostname_config (expand)&#45;&gt;[root] provider[&quot;registry.terraform.io/netascode/iosxe&quot;].cisco_sandbox -->
<g id="edge7" class="edge">
<title>[root] iosxe_system.hostname_config (expand)&#45;&gt;[root] provider[&quot;registry.terraform.io/netascode/iosxe&quot;].cisco_sandbox</title>
<path fill="none" stroke="black" d="M188.25,-145.13C191.2,-144.73 194.12,-144.35 197,-144 362.26,-123.65 552.19,-109.17 683.7,-100.55"/>
<polygon fill="black" stroke="black" points="684.1,-104.03 693.85,-99.88 683.65,-97.04 684.1,-104.03"/>
</g>
<!-- [root] var.hostname -->
<g id="node14" class="node">
<title>[root] var.hostname</title>
<polygon fill="none" stroke="black" points="132.5,-108 49.5,-108 49.5,-72 138.5,-72 138.5,-102 132.5,-108"/>
<polyline fill="none" stroke="black" points="132.5,-108 132.5,-102 "/>
<polyline fill="none" stroke="black" points="138.5,-102 132.5,-102 "/>
<text text-anchor="middle" x="94" y="-86.3" font-family="Times,serif" font-size="14.00">var.hostname</text>
</g>
<!-- [root] iosxe_system.hostname_config (expand)&#45;&gt;[root] var.hostname -->
<g id="edge8" class="edge">
<title>[root] iosxe_system.hostname_config (expand)&#45;&gt;[root] var.hostname</title>
<path fill="none" stroke="black" d="M94,-143.7C94,-135.98 94,-126.71 94,-118.11"/>
<polygon fill="black" stroke="black" points="97.5,-118.1 94,-108.1 90.5,-118.1 97.5,-118.1"/>
</g>
<!-- [root] iosxe_vrf.create_vrf (expand) -->
<g id="node7" class="node">
<title>[root] iosxe_vrf.create_vrf (expand)</title>
<polygon fill="none" stroke="black" points="1373,-180 1247,-180 1247,-144 1373,-144 1373,-180"/>
<text text-anchor="middle" x="1310" y="-158.3" font-family="Times,serif" font-size="14.00">iosxe_vrf.create_vrf</text>
</g>
<!-- [root] iosxe_vrf.create_vrf (expand)&#45;&gt;[root] provider[&quot;registry.terraform.io/netascode/iosxe&quot;].cisco_sandbox -->
<g id="edge9" class="edge">
<title>[root] iosxe_vrf.create_vrf (expand)&#45;&gt;[root] provider[&quot;registry.terraform.io/netascode/iosxe&quot;].cisco_sandbox</title>
<path fill="none" stroke="black" d="M1246.86,-145.72C1243.87,-145.12 1240.9,-144.54 1238,-144 1145.59,-126.88 1039.95,-112.92 961.64,-103.63"/>
<polygon fill="black" stroke="black" points="961.6,-100.1 951.26,-102.41 960.78,-107.06 961.6,-100.1"/>
</g>
<!-- [root] var.vrfs -->
<g id="node19" class="node">
<title>[root] var.vrfs</title>
<polygon fill="none" stroke="black" points="1333,-108 1281,-108 1281,-72 1339,-72 1339,-102 1333,-108"/>
<polyline fill="none" stroke="black" points="1333,-108 1333,-102 "/>
<polyline fill="none" stroke="black" points="1339,-102 1333,-102 "/>
<text text-anchor="middle" x="1310" y="-86.3" font-family="Times,serif" font-size="14.00">var.vrfs</text>
</g>
<!-- [root] iosxe_vrf.create_vrf (expand)&#45;&gt;[root] var.vrfs -->
<g id="edge10" class="edge">
<title>[root] iosxe_vrf.create_vrf (expand)&#45;&gt;[root] var.vrfs</title>
<path fill="none" stroke="black" d="M1310,-143.7C1310,-135.98 1310,-126.71 1310,-118.11"/>
<polygon fill="black" stroke="black" points="1313.5,-118.1 1310,-108.1 1306.5,-118.1 1313.5,-118.1"/>
</g>
<!-- [root] module.bgp_module.iosxe_bgp.bgp_proc (expand) -->
<g id="node8" class="node">
<title>[root] module.bgp_module.iosxe_bgp.bgp_proc (expand)</title>
<polygon fill="none" stroke="black" points="2154,-180 1910,-180 1910,-144 2154,-144 2154,-180"/>
<text text-anchor="middle" x="2032" y="-158.3" font-family="Times,serif" font-size="14.00">module.bgp_module.iosxe_bgp.bgp_proc</text>
</g>
<!-- [root] provider[&quot;registry.terraform.io/netascode/iosxe&quot;] -->
<g id="node12" class="node">
<title>[root] provider[&quot;registry.terraform.io/netascode/iosxe&quot;]</title>
<polygon fill="none" stroke="black" points="2236,-108 1975.76,-90 2236,-72 2496.24,-90 2236,-108"/>
<text text-anchor="middle" x="2236" y="-86.3" font-family="Times,serif" font-size="14.00">provider[&quot;registry.terraform.io/netascode/iosxe&quot;]</text>
</g>
<!-- [root] module.bgp_module.iosxe_bgp.bgp_proc (expand)&#45;&gt;[root] provider[&quot;registry.terraform.io/netascode/iosxe&quot;] -->
<g id="edge13" class="edge">
<title>[root] module.bgp_module.iosxe_bgp.bgp_proc (expand)&#45;&gt;[root] provider[&quot;registry.terraform.io/netascode/iosxe&quot;]</title>
<path fill="none" stroke="black" d="M2081.64,-143.97C2113.07,-133.18 2153.59,-119.28 2185.22,-108.42"/>
<polygon fill="black" stroke="black" points="2186.42,-111.71 2194.74,-105.16 2184.14,-105.09 2186.42,-111.71"/>
</g>
<!-- [root] module.bgp_module.var.bgp_conf_params (expand) -->
<g id="node21" class="node">
<title>[root] module.bgp_module.var.bgp_conf_params (expand)</title>
<ellipse fill="none" stroke="black" cx="1738" cy="-90" rx="219.86" ry="18"/>
<text text-anchor="middle" x="1738" y="-86.3" font-family="Times,serif" font-size="14.00">[root] module.bgp_module.var.bgp_conf_params (expand)</text>
</g>
<!-- [root] module.bgp_module.iosxe_bgp.bgp_proc (expand)&#45;&gt;[root] module.bgp_module.var.bgp_conf_params (expand) -->
<g id="edge12" class="edge">
<title>[root] module.bgp_module.iosxe_bgp.bgp_proc (expand)&#45;&gt;[root] module.bgp_module.var.bgp_conf_params (expand)</title>
<path fill="none" stroke="black" d="M1960.46,-143.97C1916.68,-133.54 1860.67,-120.21 1815.8,-109.52"/>
<polygon fill="black" stroke="black" points="1816.36,-106.06 1805.82,-107.15 1814.73,-112.87 1816.36,-106.06"/>
</g>
<!-- [root] module.bgp_neigh_module.iosxe_bgp_neighbor.bgp_neigh (expand) -->
<g id="node9" class="node">
<title>[root] module.bgp_neigh_module.iosxe_bgp_neighbor.bgp_neigh (expand)</title>
<polygon fill="none" stroke="black" points="2723.5,-180 2382.5,-180 2382.5,-144 2723.5,-144 2723.5,-180"/>
<text text-anchor="middle" x="2553" y="-158.3" font-family="Times,serif" font-size="14.00">module.bgp_neigh_module.iosxe_bgp_neighbor.bgp_neigh</text>
</g>
<!-- [root] module.bgp_neigh_module.iosxe_bgp_neighbor.bgp_neigh (expand)&#45;&gt;[root] provider[&quot;registry.terraform.io/netascode/iosxe&quot;] -->
<g id="edge17" class="edge">
<title>[root] module.bgp_neigh_module.iosxe_bgp_neighbor.bgp_neigh (expand)&#45;&gt;[root] provider[&quot;registry.terraform.io/netascode/iosxe&quot;]</title>
<path fill="none" stroke="black" d="M2475.86,-143.97C2423.54,-132.41 2355,-117.28 2304.59,-106.15"/>
<polygon fill="black" stroke="black" points="2305.28,-102.71 2294.76,-103.98 2303.77,-109.55 2305.28,-102.71"/>
</g>
<!-- [root] module.bgp_neigh_module.var.bgp_neigh_params (expand) -->
<g id="node24" class="node">
<title>[root] module.bgp_neigh_module.var.bgp_neigh_params (expand)</title>
<ellipse fill="none" stroke="black" cx="2761" cy="-90" rx="246.96" ry="18"/>
<text text-anchor="middle" x="2761" y="-86.3" font-family="Times,serif" font-size="14.00">[root] module.bgp_neigh_module.var.bgp_neigh_params (expand)</text>
</g>
<!-- [root] module.bgp_neigh_module.iosxe_bgp_neighbor.bgp_neigh (expand)&#45;&gt;[root] module.bgp_neigh_module.var.bgp_neigh_params (expand) -->
<g id="edge16" class="edge">
<title>[root] module.bgp_neigh_module.iosxe_bgp_neighbor.bgp_neigh (expand)&#45;&gt;[root] module.bgp_neigh_module.var.bgp_neigh_params (expand)</title>
<path fill="none" stroke="black" d="M2603.62,-143.97C2633.13,-134.03 2670.51,-121.45 2701.44,-111.04"/>
<polygon fill="black" stroke="black" points="2702.88,-114.25 2711.24,-107.75 2700.64,-107.62 2702.88,-114.25"/>
</g>
<!-- [root] output.output_iosxe_interface_ethernet -->
<g id="node10" class="node">
<title>[root] output.output_iosxe_interface_ethernet</title>
<polygon fill="none" stroke="black" points="1373.5,-252 1150.5,-252 1150.5,-216 1379.5,-216 1379.5,-246 1373.5,-252"/>
<polyline fill="none" stroke="black" points="1373.5,-252 1373.5,-246 "/>
<polyline fill="none" stroke="black" points="1379.5,-246 1373.5,-246 "/>
<text text-anchor="middle" x="1265" y="-230.3" font-family="Times,serif" font-size="14.00">output.output_iosxe_interface_ethernet</text>
</g>
<!-- [root] output.output_iosxe_interface_ethernet&#45;&gt;[root] data.iosxe_interface_ethernet.data_ether_intf (expand) -->
<g id="edge19" class="edge">
<title>[root] output.output_iosxe_interface_ethernet&#45;&gt;[root] data.iosxe_interface_ethernet.data_ether_intf (expand)</title>
<path fill="none" stroke="black" d="M1224.15,-215.88C1201.22,-206.26 1172.42,-194.19 1148.13,-184.01"/>
<polygon fill="black" stroke="black" points="1149.3,-180.71 1138.72,-180.07 1146.59,-187.16 1149.3,-180.71"/>
</g>
<!-- [root] output.output_static_route -->
<g id="node11" class="node">
<title>[root] output.output_static_route</title>
<polygon fill="none" stroke="black" points="1550.5,-252 1397.5,-252 1397.5,-216 1556.5,-216 1556.5,-246 1550.5,-252"/>
<polyline fill="none" stroke="black" points="1550.5,-252 1550.5,-246 "/>
<polyline fill="none" stroke="black" points="1556.5,-246 1550.5,-246 "/>
<text text-anchor="middle" x="1477" y="-230.3" font-family="Times,serif" font-size="14.00">output.output_static_route</text>
</g>
<!-- [root] output.output_static_route&#45;&gt;[root] iosxe_static_route.static_route (expand) -->
<g id="edge20" class="edge">
<title>[root] output.output_static_route&#45;&gt;[root] iosxe_static_route.static_route (expand)</title>
<path fill="none" stroke="black" d="M1478.24,-215.7C1478.79,-207.98 1479.45,-198.71 1480.06,-190.11"/>
<polygon fill="black" stroke="black" points="1483.56,-190.33 1480.78,-180.1 1476.57,-189.83 1483.56,-190.33"/>
</g>
<!-- [root] var.password -->
<g id="node16" class="node">
<title>[root] var.password</title>
<polygon fill="none" stroke="black" points="830,-36 748,-36 748,0 836,0 836,-30 830,-36"/>
<polyline fill="none" stroke="black" points="830,-36 830,-30 "/>
<polyline fill="none" stroke="black" points="836,-30 830,-30 "/>
<text text-anchor="middle" x="792" y="-14.3" font-family="Times,serif" font-size="14.00">var.password</text>
</g>
<!-- [root] provider[&quot;registry.terraform.io/netascode/iosxe&quot;].cisco_sandbox&#45;&gt;[root] var.password -->
<g id="edge30" class="edge">
<title>[root] provider[&quot;registry.terraform.io/netascode/iosxe&quot;].cisco_sandbox&#45;&gt;[root] var.password</title>
<path fill="none" stroke="black" d="M833.2,-72.41C826.8,-64.12 818.92,-53.89 811.76,-44.62"/>
<polygon fill="black" stroke="black" points="814.34,-42.23 805.46,-36.45 808.8,-46.5 814.34,-42.23"/>
</g>
<!-- [root] var.username -->
<g id="node17" class="node">
<title>[root] var.username</title>
<polygon fill="none" stroke="black" points="937.5,-36 854.5,-36 854.5,0 943.5,0 943.5,-30 937.5,-36"/>
<polyline fill="none" stroke="black" points="937.5,-36 937.5,-30 "/>
<polyline fill="none" stroke="black" points="943.5,-30 937.5,-30 "/>
<text text-anchor="middle" x="899" y="-14.3" font-family="Times,serif" font-size="14.00">var.username</text>
</g>
<!-- [root] provider[&quot;registry.terraform.io/netascode/iosxe&quot;].cisco_sandbox&#45;&gt;[root] var.username -->
<g id="edge31" class="edge">
<title>[root] provider[&quot;registry.terraform.io/netascode/iosxe&quot;].cisco_sandbox&#45;&gt;[root] var.username</title>
<path fill="none" stroke="black" d="M858.56,-72.41C864.84,-64.12 872.58,-53.89 879.61,-44.62"/>
<polygon fill="black" stroke="black" points="882.54,-46.53 885.79,-36.45 876.96,-42.31 882.54,-46.53"/>
</g>
<!-- [root] var.vlan_ids -->
<g id="node18" class="node">
<title>[root] var.vlan_ids</title>
<polygon fill="none" stroke="black" points="1651.5,-252 1574.5,-252 1574.5,-216 1657.5,-216 1657.5,-246 1651.5,-252"/>
<polyline fill="none" stroke="black" points="1651.5,-252 1651.5,-246 "/>
<polyline fill="none" stroke="black" points="1657.5,-246 1651.5,-246 "/>
<text text-anchor="middle" x="1616" y="-230.3" font-family="Times,serif" font-size="14.00">var.vlan_ids</text>
</g>
<!-- [root] module.bgp_module (close) -->
<g id="node20" class="node">
<title>[root] module.bgp_module (close)</title>
<ellipse fill="none" stroke="black" cx="1809" cy="-234" rx="133.48" ry="18"/>
<text text-anchor="middle" x="1809" y="-230.3" font-family="Times,serif" font-size="14.00">[root] module.bgp_module (close)</text>
</g>
<!-- [root] module.bgp_module (close)&#45;&gt;[root] module.bgp_module.iosxe_bgp.bgp_proc (expand) -->
<g id="edge11" class="edge">
<title>[root] module.bgp_module (close)&#45;&gt;[root] module.bgp_module.iosxe_bgp.bgp_proc (expand)</title>
<path fill="none" stroke="black" d="M1859.05,-217.29C1891.32,-207.16 1933.6,-193.89 1968.27,-183.01"/>
<polygon fill="black" stroke="black" points="1969.34,-186.34 1977.83,-180 1967.24,-179.66 1969.34,-186.34"/>
</g>
<!-- [root] module.bgp_module (expand) -->
<g id="node22" class="node">
<title>[root] module.bgp_module (expand)</title>
<ellipse fill="none" stroke="black" cx="1738" cy="-18" rx="140.28" ry="18"/>
<text text-anchor="middle" x="1738" y="-14.3" font-family="Times,serif" font-size="14.00">[root] module.bgp_module (expand)</text>
</g>
<!-- [root] module.bgp_module.var.bgp_conf_params (expand)&#45;&gt;[root] module.bgp_module (expand) -->
<g id="edge14" class="edge">
<title>[root] module.bgp_module.var.bgp_conf_params (expand)&#45;&gt;[root] module.bgp_module (expand)</title>
<path fill="none" stroke="black" d="M1738,-71.7C1738,-63.98 1738,-54.71 1738,-46.11"/>
<polygon fill="black" stroke="black" points="1741.5,-46.1 1738,-36.1 1734.5,-46.1 1741.5,-46.1"/>
</g>
<!-- [root] module.bgp_neigh_module (close) -->
<g id="node23" class="node">
<title>[root] module.bgp_neigh_module (close)</title>
<ellipse fill="none" stroke="black" cx="2601" cy="-234" rx="157.07" ry="18"/>
<text text-anchor="middle" x="2601" y="-230.3" font-family="Times,serif" font-size="14.00">[root] module.bgp_neigh_module (close)</text>
</g>
<!-- [root] module.bgp_neigh_module (close)&#45;&gt;[root] module.bgp_neigh_module.iosxe_bgp_neighbor.bgp_neigh (expand) -->
<g id="edge15" class="edge">
<title>[root] module.bgp_neigh_module (close)&#45;&gt;[root] module.bgp_neigh_module.iosxe_bgp_neighbor.bgp_neigh (expand)</title>
<path fill="none" stroke="black" d="M2589.13,-215.7C2583.5,-207.47 2576.65,-197.48 2570.43,-188.42"/>
<polygon fill="black" stroke="black" points="2573.27,-186.37 2564.73,-180.1 2567.5,-190.33 2573.27,-186.37"/>
</g>
<!-- [root] module.bgp_neigh_module (expand) -->
<g id="node25" class="node">
<title>[root] module.bgp_neigh_module (expand)</title>
<ellipse fill="none" stroke="black" cx="2761" cy="-18" rx="164.37" ry="18"/>
<text text-anchor="middle" x="2761" y="-14.3" font-family="Times,serif" font-size="14.00">[root] module.bgp_neigh_module (expand)</text>
</g>
<!-- [root] module.bgp_neigh_module.var.bgp_neigh_params (expand)&#45;&gt;[root] module.bgp_neigh_module (expand) -->
<g id="edge18" class="edge">
<title>[root] module.bgp_neigh_module.var.bgp_neigh_params (expand)&#45;&gt;[root] module.bgp_neigh_module (expand)</title>
<path fill="none" stroke="black" d="M2761,-71.7C2761,-63.98 2761,-54.71 2761,-46.11"/>
<polygon fill="black" stroke="black" points="2764.5,-46.1 2761,-36.1 2757.5,-46.1 2764.5,-46.1"/>
</g>
<!-- [root] provider[&quot;registry.terraform.io/netascode/iosxe&quot;] (close) -->
<g id="node26" class="node">
<title>[root] provider[&quot;registry.terraform.io/netascode/iosxe&quot;] (close)</title>
<ellipse fill="none" stroke="black" cx="2193" cy="-234" rx="232.86" ry="18"/>
<text text-anchor="middle" x="2193" y="-230.3" font-family="Times,serif" font-size="14.00">[root] provider[&quot;registry.terraform.io/netascode/iosxe&quot;] (close)</text>
</g>
<!-- [root] provider[&quot;registry.terraform.io/netascode/iosxe&quot;] (close)&#45;&gt;[root] module.bgp_module.iosxe_bgp.bgp_proc (expand) -->
<g id="edge21" class="edge">
<title>[root] provider[&quot;registry.terraform.io/netascode/iosxe&quot;] (close)&#45;&gt;[root] module.bgp_module.iosxe_bgp.bgp_proc (expand)</title>
<path fill="none" stroke="black" d="M2154.44,-216.23C2132.36,-206.63 2104.45,-194.5 2080.85,-184.24"/>
<polygon fill="black" stroke="black" points="2081.93,-180.89 2071.37,-180.12 2079.14,-187.31 2081.93,-180.89"/>
</g>
<!-- [root] provider[&quot;registry.terraform.io/netascode/iosxe&quot;] (close)&#45;&gt;[root] module.bgp_neigh_module.iosxe_bgp_neighbor.bgp_neigh (expand) -->
<g id="edge22" class="edge">
<title>[root] provider[&quot;registry.terraform.io/netascode/iosxe&quot;] (close)&#45;&gt;[root] module.bgp_neigh_module.iosxe_bgp_neighbor.bgp_neigh (expand)</title>
<path fill="none" stroke="black" d="M2274.69,-217.12C2328.31,-206.69 2398.72,-193 2455.31,-182"/>
<polygon fill="black" stroke="black" points="2456.2,-185.39 2465.34,-180.04 2454.86,-178.52 2456.2,-185.39"/>
</g>
<!-- [root] provider[&quot;registry.terraform.io/netascode/iosxe&quot;].cisco_sandbox (close) -->
<g id="node27" class="node">
<title>[root] provider[&quot;registry.terraform.io/netascode/iosxe&quot;].cisco_sandbox (close)</title>
<ellipse fill="none" stroke="black" cx="846" cy="-234" rx="286.75" ry="18"/>
<text text-anchor="middle" x="846" y="-230.3" font-family="Times,serif" font-size="14.00">[root] provider[&quot;registry.terraform.io/netascode/iosxe&quot;].cisco_sandbox (close)</text>
</g>
<!-- [root] provider[&quot;registry.terraform.io/netascode/iosxe&quot;].cisco_sandbox (close)&#45;&gt;[root] data.iosxe_interface_ethernet.data_ether_intf (expand) -->
<g id="edge23" class="edge">
<title>[root] provider[&quot;registry.terraform.io/netascode/iosxe&quot;].cisco_sandbox (close)&#45;&gt;[root] data.iosxe_interface_ethernet.data_ether_intf (expand)</title>
<path fill="none" stroke="black" d="M906.04,-216.32C942.26,-206.26 988.6,-193.39 1026.67,-182.81"/>
<polygon fill="black" stroke="black" points="1027.97,-186.09 1036.67,-180.04 1026.1,-179.34 1027.97,-186.09"/>
</g>
<!-- [root] provider[&quot;registry.terraform.io/netascode/iosxe&quot;].cisco_sandbox (close)&#45;&gt;[root] data.iosxe_static_route.static_route_data (expand) -->
<g id="edge24" class="edge">
<title>[root] provider[&quot;registry.terraform.io/netascode/iosxe&quot;].cisco_sandbox (close)&#45;&gt;[root] data.iosxe_static_route.static_route_data (expand)</title>
<path fill="none" stroke="black" d="M788.82,-216.32C754.47,-206.31 710.57,-193.5 674.39,-182.95"/>
<polygon fill="black" stroke="black" points="674.99,-179.48 664.41,-180.04 673.03,-186.2 674.99,-179.48"/>
</g>
<!-- [root] provider[&quot;registry.terraform.io/netascode/iosxe&quot;].cisco_sandbox (close)&#45;&gt;[root] iosxe_interface_ethernet.ether_intf (expand) -->
<g id="edge25" class="edge">
<title>[root] provider[&quot;registry.terraform.io/netascode/iosxe&quot;].cisco_sandbox (close)&#45;&gt;[root] iosxe_interface_ethernet.ether_intf (expand)</title>
<path fill="none" stroke="black" d="M846,-215.7C846,-207.98 846,-198.71 846,-190.11"/>
<polygon fill="black" stroke="black" points="849.5,-190.1 846,-180.1 842.5,-190.1 849.5,-190.1"/>
</g>
<!-- [root] provider[&quot;registry.terraform.io/netascode/iosxe&quot;].cisco_sandbox (close)&#45;&gt;[root] iosxe_interface_loopback.interface_loopback (expand) -->
<g id="edge26" class="edge">
<title>[root] provider[&quot;registry.terraform.io/netascode/iosxe&quot;].cisco_sandbox (close)&#45;&gt;[root] iosxe_interface_loopback.interface_loopback (expand)</title>
<path fill="none" stroke="black" d="M732.94,-217.42C655.7,-206.78 553.01,-192.63 471.71,-181.42"/>
<polygon fill="black" stroke="black" points="471.78,-177.9 461.4,-180 470.82,-184.84 471.78,-177.9"/>
</g>
<!-- [root] provider[&quot;registry.terraform.io/netascode/iosxe&quot;].cisco_sandbox (close)&#45;&gt;[root] iosxe_static_route.static_route (expand) -->
<g id="edge27" class="edge">
<title>[root] provider[&quot;registry.terraform.io/netascode/iosxe&quot;].cisco_sandbox (close)&#45;&gt;[root] iosxe_static_route.static_route (expand)</title>
<path fill="none" stroke="black" d="M1014.14,-219.41C1117.25,-210.34 1252.15,-197.18 1380.72,-180.12"/>
<polygon fill="black" stroke="black" points="1381.31,-183.58 1390.75,-178.78 1380.38,-176.64 1381.31,-183.58"/>
</g>
<!-- [root] provider[&quot;registry.terraform.io/netascode/iosxe&quot;].cisco_sandbox (close)&#45;&gt;[root] iosxe_system.hostname_config (expand) -->
<g id="edge28" class="edge">
<title>[root] provider[&quot;registry.terraform.io/netascode/iosxe&quot;].cisco_sandbox (close)&#45;&gt;[root] iosxe_system.hostname_config (expand)</title>
<path fill="none" stroke="black" d="M647.1,-221C521.2,-212.38 354.82,-199.12 198.53,-180.13"/>
<polygon fill="black" stroke="black" points="198.61,-176.62 188.25,-178.87 197.75,-183.56 198.61,-176.62"/>
</g>
<!-- [root] provider[&quot;registry.terraform.io/netascode/iosxe&quot;].cisco_sandbox (close)&#45;&gt;[root] iosxe_vrf.create_vrf (expand) -->
<g id="edge29" class="edge">
<title>[root] provider[&quot;registry.terraform.io/netascode/iosxe&quot;].cisco_sandbox (close)&#45;&gt;[root] iosxe_vrf.create_vrf (expand)</title>
<path fill="none" stroke="black" d="M980.77,-218.07C1053.96,-209.17 1146.17,-196.67 1236.94,-180.1"/>
<polygon fill="black" stroke="black" points="1237.66,-183.53 1246.86,-178.28 1236.39,-176.65 1237.66,-183.53"/>
</g>
<!-- [root] root -->
<g id="node28" class="node">
<title>[root] root</title>
<ellipse fill="none" stroke="black" cx="1616" cy="-306" rx="47.39" ry="18"/>
<text text-anchor="middle" x="1616" y="-302.3" font-family="Times,serif" font-size="14.00">[root] root</text>
</g>
<!-- [root] root&#45;&gt;[root] output.output_iosxe_interface_ethernet -->
<g id="edge34" class="edge">
<title>[root] root&#45;&gt;[root] output.output_iosxe_interface_ethernet</title>
<path fill="none" stroke="black" d="M1575.05,-296.83C1522.82,-286.42 1430.87,-268.08 1360.62,-254.07"/>
<polygon fill="black" stroke="black" points="1360.91,-250.56 1350.42,-252.04 1359.54,-257.42 1360.91,-250.56"/>
</g>
<!-- [root] root&#45;&gt;[root] output.output_static_route -->
<g id="edge35" class="edge">
<title>[root] root&#45;&gt;[root] output.output_static_route</title>
<path fill="none" stroke="black" d="M1588.54,-291.17C1568.93,-281.29 1542.17,-267.82 1519.77,-256.54"/>
<polygon fill="black" stroke="black" points="1521.3,-253.39 1510.79,-252.02 1518.15,-259.64 1521.3,-253.39"/>
</g>
<!-- [root] root&#45;&gt;[root] var.vlan_ids -->
<g id="edge38" class="edge">
<title>[root] root&#45;&gt;[root] var.vlan_ids</title>
<path fill="none" stroke="black" d="M1616,-287.7C1616,-279.98 1616,-270.71 1616,-262.11"/>
<polygon fill="black" stroke="black" points="1619.5,-262.1 1616,-252.1 1612.5,-262.1 1619.5,-262.1"/>
</g>
<!-- [root] root&#45;&gt;[root] module.bgp_module (close) -->
<g id="edge32" class="edge">
<title>[root] root&#45;&gt;[root] module.bgp_module (close)</title>
<path fill="none" stroke="black" d="M1649.18,-292.97C1678.21,-282.44 1720.94,-266.94 1754.92,-254.62"/>
<polygon fill="black" stroke="black" points="1756.49,-257.77 1764.7,-251.07 1754.11,-251.19 1756.49,-257.77"/>
</g>
<!-- [root] root&#45;&gt;[root] module.bgp_neigh_module (close) -->
<g id="edge33" class="edge">
<title>[root] root&#45;&gt;[root] module.bgp_neigh_module (close)</title>
<path fill="none" stroke="black" d="M1662.68,-302.59C1787.86,-296 2141.43,-276.52 2435,-252 2449.8,-250.76 2465.33,-249.34 2480.71,-247.86"/>
<polygon fill="black" stroke="black" points="2481.17,-251.33 2490.78,-246.87 2480.49,-244.36 2481.17,-251.33"/>
</g>
<!-- [root] root&#45;&gt;[root] provider[&quot;registry.terraform.io/netascode/iosxe&quot;] (close) -->
<g id="edge36" class="edge">
<title>[root] root&#45;&gt;[root] provider[&quot;registry.terraform.io/netascode/iosxe&quot;] (close)</title>
<path fill="none" stroke="black" d="M1660.8,-299.57C1746.19,-289.21 1935.18,-266.28 2063.36,-250.73"/>
<polygon fill="black" stroke="black" points="2064.14,-254.16 2073.64,-249.48 2063.29,-247.21 2064.14,-254.16"/>
</g>
<!-- [root] root&#45;&gt;[root] provider[&quot;registry.terraform.io/netascode/iosxe&quot;].cisco_sandbox (close) -->
<g id="edge37" class="edge">
<title>[root] root&#45;&gt;[root] provider[&quot;registry.terraform.io/netascode/iosxe&quot;].cisco_sandbox (close)</title>
<path fill="none" stroke="black" d="M1570.42,-300.86C1463.09,-291.1 1190.05,-266.28 1011.53,-250.05"/>
<polygon fill="black" stroke="black" points="1011.78,-246.56 1001.51,-249.14 1011.15,-253.53 1011.78,-246.56"/>
</g>
</g>
</svg>
